HIERARCHY
ROOT SpineBase
{
  OFFSET 0.000000 0.000000 0.000000
  CHANNELS 6 Xposition Yposition Zposition Zrotation Xrotation Yrotation
  JOINT SpineMid
  {
    OFFSET -0.000000 33.791658 0.000000
    CHANNELS 3 Zrotation Xrotation Yrotation
    JOINT SpineShoulder
    {
      OFFSET 0.023021 25.091134 -0.879827
      CHANNELS 3 Zrotation Xrotation Yrotation
      JOINT Neck
      {
        OFFSET 0.024426 8.275174 -0.646148
        CHANNELS 3 Zrotation Xrotation Yrotation
        JOINT Head
        {
          OFFSET 1.544519 9.802912 6.113569
          CHANNELS 3 Zrotation Xrotation Yrotation
          End Site
          {
            OFFSET 0 0 0
          }
        }
      }
      JOINT ShoulderLeft
      {
        OFFSET -1.629571 -5.677894 -14.152306
        CHANNELS 3 Zrotation Xrotation Yrotation
        JOINT ElbowLeft
        {
          OFFSET 1.893423 -25.452112 -7.367053
          CHANNELS 3 Zrotation Xrotation Yrotation
          JOINT WristLeft
          {
            OFFSET 6.185621 -29.355606 0.974549
            CHANNELS 3 Zrotation Xrotation Yrotation
            JOINT HandLeft
            {
              OFFSET -1.595599 -4.556507 2.096043
              CHANNELS 3 Zrotation Xrotation Yrotation
              JOINT HandTipLeft
              {
                OFFSET 1.916826 -6.687449 1.230270
                CHANNELS 3 Zrotation Xrotation Yrotation
                End Site
                {
                  OFFSET 0 0 0
                }
              }
              JOINT ThumbLeft
              {
                OFFSET -3.695264 0.119713 1.220093
                CHANNELS 3 Zrotation Xrotation Yrotation
                End Site
                {
                  OFFSET 0 0 0
                }
              }
            }
          }
        }
      }
      JOINT ShoulderRight
      {
        OFFSET 9.900030 -3.817897 12.163588
        CHANNELS 3 Zrotation Xrotation Yrotation
        JOINT ElbowRight
        {
          OFFSET 1.122697 -26.687642 5.418156
          CHANNELS 3 Zrotation Xrotation Yrotation
          JOINT WristRight
          {
            OFFSET 3.776210 -25.857299 1.689129
            CHANNELS 3 Zrotation Xrotation Yrotation
            JOINT HandRight
            {
              OFFSET -1.145828 -2.538984 9.064916
              CHANNELS 3 Zrotation Xrotation Yrotation
              JOINT HandTipRight
              {
                OFFSET 0.249845 -3.522012 0.474638
                CHANNELS 3 Zrotation Xrotation Yrotation
                End Site
                {
                  OFFSET 0 0 0
                }
              }
              JOINT ThumbRight
              {
                OFFSET 0.476176 1.202937 -2.424122
                CHANNELS 3 Zrotation Xrotation Yrotation
                End Site
                {
                  OFFSET 0 0 0
                }
              }
            }
          }
        }
      }
    }
  }
  JOINT HipLeft
  {
    OFFSET -2.570105 1.582934 -7.655525
    CHANNELS 3 Zrotation Xrotation Yrotation
    JOINT KneeLeft
    {
      OFFSET -1.403725 -36.271970 -1.261359
      CHANNELS 3 Zrotation Xrotation Yrotation
      JOINT AnkleLeft
      {
        OFFSET -10.120200 -37.916435 4.591480
        CHANNELS 3 Zrotation Xrotation Yrotation
        JOINT FootLeft
        {
          OFFSET 10.101462 -3.966664 -7.685715
          CHANNELS 3 Zrotation Xrotation Yrotation
          End Site
          {
            OFFSET 0 0 0
          }
        }
      }
    }
  }
  JOINT HipRight
  {
    OFFSET 3.203467 -0.009100 -0.044644
    CHANNELS 3 Zrotation Xrotation Yrotation
    JOINT KneeRight
    {
      OFFSET -0.009215 -34.434107 -8.065033
      CHANNELS 3 Zrotation Xrotation Yrotation
      JOINT AnkleRight
      {
        OFFSET -5.327411 -31.476635 32.675406
        CHANNELS 3 Zrotation Xrotation Yrotation
        JOINT FootRight
        {
          OFFSET 2.427494 -8.926210 1.542144
          CHANNELS 3 Zrotation Xrotation Yrotation
          End Site
          {
            OFFSET 0 0 0
          }
        }
      }
    }
  }
}
MOTION
Frames: 9
Frame Time: 0.033333
-7.255116 81.822191 352.135172 -16.975204 11.813236 -53.409470 0.241755 -0.927409 54.378928 -0.693764 0.851137 -0.776713 4.048545 0.920092 8.149098 0.000000 0.000000 0.000000 58.381531 24.935350 -10.603681 27.841626 7.791105 25.458945 19.536885 6.992420 62.050854 -34.337368 4.146002 -38.073805 0.000000 0.000000 0.000000 0.000000 0.000000 0.000000 46.931592 41.325228 4.424576 14.929126 33.076975 -1.142505 -58.714199 -28.444920 95.296985 -58.630184 -27.300695 -131.279886 0.000000 0.000000 0.000000 0.000000 0.000000 0.000000 23.991806 14.158476 52.864730 14.327362 5.161020 0.654671 -21.590301 -13.845925 -29.409798 0.000000 0.000000 0.000000 15.129274 9.400744 54.714034 -1.447629 5.181578 -4.061398 33.057226 61.506445 16.492813 0.000000 0.000000 0.000000
-6.196783 81.523058 351.973544 -18.181998 12.252223 -53.786693 0.317711 -0.693436 54.946871 -0.527460 0.708641 -0.810835 8.090205 -1.824038 6.951686 0.000000 0.000000 0.000000 60.779305 24.091739 -10.734621 29.194566 5.367044 27.003115 18.491377 6.517564 64.414471 -35.030154 4.378674 -39.425837 0.000000 0.000000 0.000000 0.000000 0.000000 0.000000 63.840436 57.519071 -4.655914 2.857105 14.762716 -1.726691 -57.692621 -24.045060 95.869813 -63.467983 -39.929000 -133.037411 0.000000 0.000000 0.000000 0.000000 0.000000 0.000000 24.615104 13.772540 53.338447 15.065620 3.929392 1.227205 -18.669155 -10.901328 -28.651987 0.000000 0.000000 0.000000 14.560666 12.614490 55.250540 -3.591977 1.103663 -4.888937 35.797392 60.680195 15.494894 0.000000 0.000000 0.000000
-4.989497 81.222297 352.001690 -19.287144 12.255337 -54.543417 0.151849 -0.614360 55.804914 -0.396619 0.435962 -0.879570 10.803390 -7.748762 7.037504 0.000000 0.000000 0.000000 66.260723 21.935890 -11.826772 28.469076 3.698322 27.971759 16.249256 0.993427 72.082178 -29.792164 8.694963 -44.873084 0.000000 0.000000 0.000000 0.000000 0.000000 0.000000 91.813640 67.785943 -25.450695 -11.378259 -6.862685 -6.675760 -52.022676 -9.558218 93.099397 -69.711696 -51.046665 -127.537972 0.000000 0.000000 0.000000 0.000000 0.000000 0.000000 24.905545 14.238674 53.991278 12.706151 -0.253334 2.833094 -13.828203 -2.758277 -21.043220 0.000000 0.000000 0.000000 15.448484 12.773814 56.004273 -3.109403 5.459127 -5.764228 36.826643 56.375130 18.622585 0.000000 0.000000 0.000000
-3.779300 81.093315 351.904520 -19.408161 12.405905 -56.083281 0.146198 0.192049 57.551246 -0.206322 0.292834 -0.848710 6.613121 -16.616109 9.099516 0.000000 0.000000 0.000000 66.902817 20.004615 -11.537245 29.682276 1.499025 29.185984 15.325626 -4.804316 79.448162 -26.231227 11.790772 -49.208088 0.000000 0.000000 0.000000 0.000000 0.000000 0.000000 99.062657 68.876876 -31.473996 -15.788246 -11.151568 -9.381115 -46.261606 -10.220159 80.380660 -66.595937 -58.214554 -115.779194 0.000000 0.000000 0.000000 0.000000 0.000000 0.000000 25.915770 14.984429 55.211136 8.078063 -4.273137 4.116821 -12.854285 4.213555 -11.375513 0.000000 0.000000 0.000000 16.411103 10.196239 57.664509 2.128892 13.061408 -3.544463 31.801215 49.696047 19.828589 0.000000 0.000000 0.000000
-2.625422 81.290986 352.110307 -19.221605 12.453147 -58.335029 0.088127 0.465347 59.857071 0.538403 0.209108 -0.704055 -1.535295 -32.649309 11.904260 0.000000 0.000000 0.000000 67.115874 17.904406 -11.368766 32.604312 -1.104660 31.141952 12.741669 -8.339423 82.742750 -23.803574 12.041704 -51.469423 0.000000 0.000000 0.000000 0.000000 0.000000 0.000000 88.991802 66.491899 -23.141823 -13.521491 -6.566179 -8.788219 -43.343470 -19.452992 74.619518 -27.457682 -58.189443 -91.344487 0.000000 0.000000 0.000000 0.000000 0.000000 0.000000 25.215052 15.592172 57.391762 4.455297 -9.550477 5.440633 -10.786730 11.271155 -3.217140 0.000000 0.000000 0.000000 15.606876 10.203512 60.045689 5.936791 18.827471 -1.480403 27.049738 39.848555 20.160102 0.000000 0.000000 0.000000
-1.567151 81.158700 352.066974 -18.617234 12.245545 -59.158092 0.339716 0.823457 60.651069 0.976336 0.067282 -0.598330 -22.230996 -53.452940 11.836332 0.000000 0.000000 0.000000 67.183978 16.116967 -11.717428 35.298524 -4.396422 33.570648 11.119251 -13.583681 88.101190 -26.270345 10.179858 -51.144020 0.000000 0.000000 0.000000 0.000000 0.000000 0.000000 64.020572 55.175142 -4.428001 -2.442955 13.029287 -5.797576 -27.746979 -53.305134 126.424295 -12.461355 -41.519339 -137.794221 0.000000 0.000000 0.000000 0.000000 0.000000 0.000000 24.622132 15.242954 58.220670 0.896703 -14.329732 6.288447 -7.414310 18.117300 3.159875 0.000000 0.000000 0.000000 14.563645 9.468409 61.035670 10.298210 25.332821 0.690499 23.481691 27.123266 19.097134 0.000000 0.000000 0.000000
-1.187695 80.586634 351.677754 -18.916770 11.112479 -59.059060 0.579675 0.835999 60.357646 0.797936 0.352030 -0.605394 -35.427361 -63.062524 7.636471 0.000000 0.000000 0.000000 68.770307 15.319205 -12.475256 38.162795 -7.766301 36.305676 9.691244 -23.701788 96.209158 -18.629503 14.183994 -56.219451 0.000000 0.000000 0.000000 0.000000 0.000000 0.000000 49.223242 33.202731 5.846789 12.373734 41.713639 -9.987353 72.759803 -50.213776 -128.527059 41.040858 -44.996978 -159.424907 0.000000 0.000000 0.000000 0.000000 0.000000 0.000000 23.161354 19.066773 57.729631 -5.702642 -22.337597 7.017652 -2.287858 24.845161 5.693669 0.000000 0.000000 0.000000 13.649973 10.412711 60.807588 13.656232 31.501203 2.702157 19.425786 14.802513 17.192657 0.000000 0.000000 0.000000
-0.871769 80.416562 351.236353 -19.838275 9.310609 -56.703204 0.723733 0.647083 57.686374 1.217865 0.397015 -0.584777 -36.902779 -61.121229 10.220962 0.000000 0.000000 0.000000 69.746894 15.265034 -13.768296 40.809655 -9.535466 37.853153 3.054364 -45.392449 102.728873 0.517459 8.082663 -64.572433 0.000000 0.000000 0.000000 0.000000 0.000000 0.000000 36.551113 15.551238 7.057009 36.689905 69.485413 -24.667557 93.388986 -19.915775 -102.775997 90.345665 -56.121782 -163.694239 0.000000 0.000000 0.000000 0.000000 0.000000 0.000000 23.548965 19.046862 54.817515 -7.525741 -24.055852 6.983563 0.412698 27.732501 6.270357 0.000000 0.000000 0.000000 13.172486 11.322299 58.243741 16.590484 36.816828 3.859078 13.249681 8.767597 14.132459 0.000000 0.000000 0.000000
-0.334583 80.409815 350.880655 -21.068591 6.971387 -52.685253 0.812745 0.385804 53.227311 1.307230 0.541989 -0.627768 -27.756445 -52.188098 16.517240 0.000000 0.000000 0.000000 70.536238 15.952992 -15.221445 43.541326 -11.151355 39.037440 -11.756458 -73.605344 101.488101 25.737992 -6.550337 -71.709580 0.000000 0.000000 0.000000 0.000000 0.000000 0.000000 26.046036 7.697237 4.753601 93.977944 79.631841 -67.991142 94.670073 0.576344 -94.048379 122.913712 -60.039353 -160.226998 0.000000 0.000000 0.000000 0.000000 0.000000 0.000000 25.360312 15.477289 50.159495 -5.520698 -19.153385 6.499754 1.433734 26.787265 4.951614 0.000000 0.000000 0.000000 12.256516 11.944840 54.202846 19.265131 39.742010 4.152173 6.427393 10.403448 10.754793 0.000000 0.000000 0.000000
